<svg width="155" height="127" viewBox="0 0 155 127" fill="none" xmlns="http://www.w3.org/2000/svg">
<path d="M14.724 12.8L23.724 38H18.756L16.848 32.564H7.416L5.508 38H0.54L9.54 12.8H14.724ZM12.096 19.136L8.928 28.244H15.3L12.168 19.136H12.096ZM31.1338 38L26.9578 35.588V11.72H31.8898V33.788H35.4898V38H31.1338ZM42.9472 30.908V34.04H48.0232V30.908H42.9472ZM42.1912 38.18L38.0152 35.768V29.54L42.1912 27.128H48.0232V24.212H39.8152V20H48.7792L52.9552 22.412V38.18H50.5792L48.0232 36.704L45.4672 38.18H42.1912ZM61.1243 20L65.2643 31.808H65.3363L69.5123 20H74.4443L67.7843 38H62.8523L56.1923 20H61.1243ZM81.9003 30.908V34.04H86.9763V30.908H81.9003ZM81.1443 38.18L76.9683 35.768V29.54L81.1443 27.128H86.9763V24.212H78.7683V20H87.7323L91.9083 22.412V38.18H89.5323L86.9763 36.704L84.4203 38.18H81.1443ZM113.325 22.232V38H108.393V24.032H102.237V38H97.3055V19.82H101.373L102.237 21.296L104.793 19.82H109.149L113.325 22.232ZM123.648 24.212V33.788H132.576V38H122.892L118.716 35.588V22.412L122.892 20H132.576V24.212H123.648ZM141.455 30.908V34.04H146.531V30.908H141.455ZM140.699 38.18L136.523 35.768V29.54L140.699 27.128H146.531V24.212H138.323V20H147.287L151.463 22.412V38.18H149.087L146.531 36.704L143.975 38.18H140.699Z" fill="black"/>
<path d="M17.2 86.4V99.36H37.288V108H7.12V57.6H37.288V66.24H17.2V77.76H32.968V86.4H17.2ZM85.8756 103.176L77.5236 108H46.6356V57.6H77.5236L85.8756 62.424V103.176ZM56.7156 66.24V99.36H75.7956V66.24H56.7156ZM127.264 57.6H137.344V103.536L128.992 108.36H106.456L98.1044 103.536V57.6H108.184V99H127.264V57.6Z" fill="#E30707"/>
</svg>
